/home/minht/3dpredictsim_tutorial/predsim_tutorial/Results/Case_16/GRF.mot
version=1
nRows=15
nColumns=19
inDegrees=yes
endheader 
time	r_ground_force_vx	r_ground_force_vy	r_ground_force_vz	r_ground_force_px	r_ground_force_py	r_ground_force_pz	l_ground_force_vx	l_ground_force_vy	l_ground_force_vz	l_ground_force_px	l_ground_force_py	l_ground_force_pz	r_ground_torque_x	r_ground_torque_y	r_ground_torque_z	l_ground_torque_x	l_ground_torque_y	l_ground_torque_z	
          1.10131268	          0.00000000	          0.00000000	          0.00000000	          0.00000000	          0.00000000	          0.00000000	        -46.41544723	        880.21091249	        -16.73341942	          0.00387914	          0.00000000	         -0.00072676	          0.00000000	          0.00000000	          0.00000000	          0.00000000	          0.54026141	          0.00000000	
          1.11799924	          0.00000000	          0.00000000	          0.00000000	          0.00000000	          0.00000000	          0.00000000	        -39.72402877	        886.59277281	        -17.90941597	          0.00114455	          0.00000000	         -0.00019469	          0.00000000	          0.00000000	          0.00000000	          0.00000000	          0.09454800	          0.00000000	
          1.13468579	          0.00000000	          0.00000000	          0.00000000	          0.00000000	          0.00000000	          0.00000000	        -33.65834974	        887.23667201	        -18.46135001	          0.00050266	          0.00000000	         -0.00008692	          0.00000000	          0.00000000	          0.00000000	          0.00000000	          0.04160177	          0.00000000	
          1.15137235	          0.00000000	          0.00000000	          0.00000000	          0.00000000	          0.00000000	          0.00000000	        -28.21635267	        886.56825064	        -18.87225606	          0.00022677	          0.00000000	         -0.00003766	          0.00000000	          0.00000000	          0.00000000	          0.00000000	          0.01767694	          0.00000000	
          1.16805890	          0.00000000	          0.00000000	          0.00000000	          0.00000000	          0.00000000	          0.00000000	        -23.62988400	        886.83615676	        -19.28143862	          0.00013424	          0.00000000	         -0.00002082	          0.00000000	          0.00000000	          0.00000000	          0.00000000	          0.00956520	          0.00000000	
          1.18474546	          0.00000000	          0.00000000	          0.00000000	          0.00000000	          0.00000000	          0.00000000	        -19.69030164	        888.43358029	        -19.72061094	          0.00011136	          0.00000000	         -0.00001587	          0.00000000	          0.00000000	          0.00000000	          0.00000000	          0.00686258	          0.00000000	
          1.20143202	          0.00000000	          0.00000000	          0.00000000	          0.00000000	          0.00000000	          0.00000000	        -16.72175926	        891.83062095	        -20.21744848	          0.00012488	          0.00000000	         -0.00001623	          0.00000000	          0.00000000	          0.00000000	          0.00000000	          0.00642410	          0.00000000	
          1.21811857	          0.00000000	          0.00000000	          0.00000000	          0.00000000	          0.00000000	          0.00000000	        -14.07926509	        896.71186534	        -20.78887516	          0.00017230	          0.00000000	         -0.00002040	          0.00000000	          0.00000000	          0.00000000	          0.00000000	          0.00729569	          0.00000000	
          1.23480513	          0.00000000	          0.00000000	          0.00000000	          0.00000000	          0.00000000	          0.00000000	        -11.86359636	        901.76706376	        -21.36690774	          0.00026252	          0.00000000	         -0.00002850	          0.00000000	          0.00000000	          0.00000000	          0.00000000	          0.00943616	          0.00000000	
          1.25149168	          0.00000000	          0.00000000	          0.00000000	          0.00000000	          0.00000000	          0.00000000	         -9.62419953	        906.55245232	        -21.99009153	          0.00040140	          0.00000000	         -0.00004038	          0.00000000	          0.00000000	          0.00000000	          0.00000000	          0.01321562	          0.00000000	
          1.26817824	          0.00000000	          0.00000000	          0.00000000	          0.00000000	          0.00000000	          0.00000000	         -7.36532635	        910.53906444	        -22.58671876	          0.00057613	          0.00000000	         -0.00005441	          0.00000000	          0.00000000	          0.00000000	          0.00000000	          0.01932058	          0.00000000	
          1.28486479	          0.00000000	          0.00000000	          0.00000000	          0.00000000	          0.00000000	          0.00000000	         -4.82064296	        913.39340363	        -22.89038208	          0.00075161	          0.00000000	         -0.00006744	          0.00000000	          0.00000000	          0.00000000	          0.00000000	          0.02864797	          0.00000000	
          1.30155135	          0.00000000	          0.00000000	          0.00000000	          0.00000000	          0.00000000	          0.00000000	         -2.08974584	        915.22423992	        -22.96592923	          0.00088123	          0.00000000	         -0.00007587	          0.00000000	          0.00000000	          0.00000000	          0.00000000	          0.04105293	          0.00000000	
          1.31823791	          0.00000000	          0.00000000	          0.00000000	          0.00000000	          0.00000000	          0.00000000	          0.54722002	        916.37368078	        -22.89297513	          0.00092907	          0.00000000	         -0.00007731	          0.00000000	          0.00000000	          0.00000000	          0.00000000	          0.05383195	          0.00000000	
          1.33492446	          0.00000000	          0.00000000	          0.00000000	          0.00000000	          0.00000000	          0.00000000	          3.33143602	        916.93690774	        -22.57169099	          0.00088029	          0.00000000	         -0.00007114	          0.00000000	          0.00000000	          0.00000000	          0.00000000	          0.06284175	          0.00000000	
